<svg xmlns="http://www.w3.org/2000/svg" version="1.1" xmlns:xlink="http://www.w3.org/1999/xlink" xmlns:svgjs="http://svgjs.dev/svgjs" viewBox="0 0 800 800" opacity="1"><defs><linearGradient gradientTransform="rotate(270)" x1="50%" y1="0%" x2="50%" y2="100%" id="sssquiggly-grad"><stop stop-color="hsl(185, 53%, 55%)" stop-opacity="1" offset="0%"></stop><stop stop-color="hsl(0, 73%, 55%)" stop-opacity="1" offset="100%"></stop></linearGradient></defs><g stroke-width="3" stroke="url(#sssquiggly-grad)" fill="none" stroke-linecap="round" transform="matrix(1,0,0,1,-5,-149.19986152648926)"><path d="M10,10C28.75,16.041666666666664,60.416666666666664,47.333333333333336,100,39C139.58333333333334,30.666666666666664,158.33333333333331,-29.583333333333332,200,-30C241.66666666666669,-30.416666666666668,258.3333333333333,33.041666666666664,300,37C341.6666666666667,40.958333333333336,358.3333333333333,-7.666666666666667,400,-11C441.6666666666667,-14.333333333333332,458.3333333333333,24.75,500,21C541.6666666666666,17.25,558.3333333333334,-31.708333333333332,600,-29C641.6666666666666,-26.291666666666668,658.3333333333334,28.791666666666664,700,34C741.6666666666666,39.208333333333336,779.1666666666666,3.916666666666666,800,-4"></path><path d="M10,10C28.75,16.041666666666664,60.416666666666664,47.333333333333336,100,39C139.58333333333334,30.666666666666664,158.33333333333331,-29.583333333333332,200,-30C241.66666666666669,-30.416666666666668,258.3333333333333,33.041666666666664,300,37C341.6666666666667,40.958333333333336,358.3333333333333,-7.666666666666667,400,-11C441.6666666666667,-14.333333333333332,458.3333333333333,24.75,500,21C541.6666666666666,17.25,558.3333333333334,-31.708333333333332,600,-29C641.6666666666666,-26.291666666666668,658.3333333333334,28.791666666666664,700,34C741.6666666666666,39.208333333333336,779.1666666666666,3.916666666666666,800,-4" transform="matrix(1,0,0,1,0,1088)"></path><path d="M10,10C28.75,16.041666666666664,60.416666666666664,47.333333333333336,100,39C139.58333333333334,30.666666666666664,158.33333333333331,-29.583333333333332,200,-30C241.66666666666669,-30.416666666666668,258.3333333333333,33.041666666666664,300,37C341.6666666666667,40.958333333333336,358.3333333333333,-7.666666666666667,400,-11C441.6666666666667,-14.333333333333332,458.3333333333333,24.75,500,21C541.6666666666666,17.25,558.3333333333334,-31.708333333333332,600,-29C641.6666666666666,-26.291666666666668,658.3333333333334,28.791666666666664,700,34C741.6666666666666,39.208333333333336,779.1666666666666,3.916666666666666,800,-4" transform="matrix(1,0,0,1,0,1056)"></path><path d="M10,10C28.75,16.041666666666664,60.416666666666664,47.333333333333336,100,39C139.58333333333334,30.666666666666664,158.33333333333331,-29.583333333333332,200,-30C241.66666666666669,-30.416666666666668,258.3333333333333,33.041666666666664,300,37C341.6666666666667,40.958333333333336,358.3333333333333,-7.666666666666667,400,-11C441.6666666666667,-14.333333333333332,458.3333333333333,24.75,500,21C541.6666666666666,17.25,558.3333333333334,-31.708333333333332,600,-29C641.6666666666666,-26.291666666666668,658.3333333333334,28.791666666666664,700,34C741.6666666666666,39.208333333333336,779.1666666666666,3.916666666666666,800,-4" transform="matrix(1,0,0,1,0,1024)"></path><path d="M10,10C28.75,16.041666666666664,60.416666666666664,47.333333333333336,100,39C139.58333333333334,30.666666666666664,158.33333333333331,-29.583333333333332,200,-30C241.66666666666669,-30.416666666666668,258.3333333333333,33.041666666666664,300,37C341.6666666666667,40.958333333333336,358.3333333333333,-7.666666666666667,400,-11C441.6666666666667,-14.333333333333332,458.3333333333333,24.75,500,21C541.6666666666666,17.25,558.3333333333334,-31.708333333333332,600,-29C641.6666666666666,-26.291666666666668,658.3333333333334,28.791666666666664,700,34C741.6666666666666,39.208333333333336,779.1666666666666,3.916666666666666,800,-4" transform="matrix(1,0,0,1,0,992)"></path><path d="M10,10C28.75,16.041666666666664,60.416666666666664,47.333333333333336,100,39C139.58333333333334,30.666666666666664,158.33333333333331,-29.583333333333332,200,-30C241.66666666666669,-30.416666666666668,258.3333333333333,33.041666666666664,300,37C341.6666666666667,40.958333333333336,358.3333333333333,-7.666666666666667,400,-11C441.6666666666667,-14.333333333333332,458.3333333333333,24.75,500,21C541.6666666666666,17.25,558.3333333333334,-31.708333333333332,600,-29C641.6666666666666,-26.291666666666668,658.3333333333334,28.791666666666664,700,34C741.6666666666666,39.208333333333336,779.1666666666666,3.916666666666666,800,-4" transform="matrix(1,0,0,1,0,960)"></path><path d="M10,10C28.75,16.041666666666664,60.416666666666664,47.333333333333336,100,39C139.58333333333334,30.666666666666664,158.33333333333331,-29.583333333333332,200,-30C241.66666666666669,-30.416666666666668,258.3333333333333,33.041666666666664,300,37C341.6666666666667,40.958333333333336,358.3333333333333,-7.666666666666667,400,-11C441.6666666666667,-14.333333333333332,458.3333333333333,24.75,500,21C541.6666666666666,17.25,558.3333333333334,-31.708333333333332,600,-29C641.6666666666666,-26.291666666666668,658.3333333333334,28.791666666666664,700,34C741.6666666666666,39.208333333333336,779.1666666666666,3.916666666666666,800,-4" transform="matrix(1,0,0,1,0,928)"></path><path d="M10,10C28.75,16.041666666666664,60.416666666666664,47.333333333333336,100,39C139.58333333333334,30.666666666666664,158.33333333333331,-29.583333333333332,200,-30C241.66666666666669,-30.416666666666668,258.3333333333333,33.041666666666664,300,37C341.6666666666667,40.958333333333336,358.3333333333333,-7.666666666666667,400,-11C441.6666666666667,-14.333333333333332,458.3333333333333,24.75,500,21C541.6666666666666,17.25,558.3333333333334,-31.708333333333332,600,-29C641.6666666666666,-26.291666666666668,658.3333333333334,28.791666666666664,700,34C741.6666666666666,39.208333333333336,779.1666666666666,3.916666666666666,800,-4" transform="matrix(1,0,0,1,0,896)"></path><path d="M10,10C28.75,16.041666666666664,60.416666666666664,47.333333333333336,100,39C139.58333333333334,30.666666666666664,158.33333333333331,-29.583333333333332,200,-30C241.66666666666669,-30.416666666666668,258.3333333333333,33.041666666666664,300,37C341.6666666666667,40.958333333333336,358.3333333333333,-7.666666666666667,400,-11C441.6666666666667,-14.333333333333332,458.3333333333333,24.75,500,21C541.6666666666666,17.25,558.3333333333334,-31.708333333333332,600,-29C641.6666666666666,-26.291666666666668,658.3333333333334,28.791666666666664,700,34C741.6666666666666,39.208333333333336,779.1666666666666,3.916666666666666,800,-4" transform="matrix(1,0,0,1,0,864)"></path><path d="M10,10C28.75,16.041666666666664,60.416666666666664,47.333333333333336,100,39C139.58333333333334,30.666666666666664,158.33333333333331,-29.583333333333332,200,-30C241.66666666666669,-30.416666666666668,258.3333333333333,33.041666666666664,300,37C341.6666666666667,40.958333333333336,358.3333333333333,-7.666666666666667,400,-11C441.6666666666667,-14.333333333333332,458.3333333333333,24.75,500,21C541.6666666666666,17.25,558.3333333333334,-31.708333333333332,600,-29C641.6666666666666,-26.291666666666668,658.3333333333334,28.791666666666664,700,34C741.6666666666666,39.208333333333336,779.1666666666666,3.916666666666666,800,-4" transform="matrix(1,0,0,1,0,832)"></path><path d="M10,10C28.75,16.041666666666664,60.416666666666664,47.333333333333336,100,39C139.58333333333334,30.666666666666664,158.33333333333331,-29.583333333333332,200,-30C241.66666666666669,-30.416666666666668,258.3333333333333,33.041666666666664,300,37C341.6666666666667,40.958333333333336,358.3333333333333,-7.666666666666667,400,-11C441.6666666666667,-14.333333333333332,458.3333333333333,24.75,500,21C541.6666666666666,17.25,558.3333333333334,-31.708333333333332,600,-29C641.6666666666666,-26.291666666666668,658.3333333333334,28.791666666666664,700,34C741.6666666666666,39.208333333333336,779.1666666666666,3.916666666666666,800,-4" transform="matrix(1,0,0,1,0,800)"></path><path d="M10,10C28.75,16.041666666666664,60.416666666666664,47.333333333333336,100,39C139.58333333333334,30.666666666666664,158.33333333333331,-29.583333333333332,200,-30C241.66666666666669,-30.416666666666668,258.3333333333333,33.041666666666664,300,37C341.6666666666667,40.958333333333336,358.3333333333333,-7.666666666666667,400,-11C441.6666666666667,-14.333333333333332,458.3333333333333,24.75,500,21C541.6666666666666,17.25,558.3333333333334,-31.708333333333332,600,-29C641.6666666666666,-26.291666666666668,658.3333333333334,28.791666666666664,700,34C741.6666666666666,39.208333333333336,779.1666666666666,3.916666666666666,800,-4" transform="matrix(1,0,0,1,0,768)"></path><path d="M10,10C28.75,16.041666666666664,60.416666666666664,47.333333333333336,100,39C139.58333333333334,30.666666666666664,158.33333333333331,-29.583333333333332,200,-30C241.66666666666669,-30.416666666666668,258.3333333333333,33.041666666666664,300,37C341.6666666666667,40.958333333333336,358.3333333333333,-7.666666666666667,400,-11C441.6666666666667,-14.333333333333332,458.3333333333333,24.75,500,21C541.6666666666666,17.25,558.3333333333334,-31.708333333333332,600,-29C641.6666666666666,-26.291666666666668,658.3333333333334,28.791666666666664,700,34C741.6666666666666,39.208333333333336,779.1666666666666,3.916666666666666,800,-4" transform="matrix(1,0,0,1,0,736)"></path><path d="M10,10C28.75,16.041666666666664,60.416666666666664,47.333333333333336,100,39C139.58333333333334,30.666666666666664,158.33333333333331,-29.583333333333332,200,-30C241.66666666666669,-30.416666666666668,258.3333333333333,33.041666666666664,300,37C341.6666666666667,40.958333333333336,358.3333333333333,-7.666666666666667,400,-11C441.6666666666667,-14.333333333333332,458.3333333333333,24.75,500,21C541.6666666666666,17.25,558.3333333333334,-31.708333333333332,600,-29C641.6666666666666,-26.291666666666668,658.3333333333334,28.791666666666664,700,34C741.6666666666666,39.208333333333336,779.1666666666666,3.916666666666666,800,-4" transform="matrix(1,0,0,1,0,704)"></path><path d="M10,10C28.75,16.041666666666664,60.416666666666664,47.333333333333336,100,39C139.58333333333334,30.666666666666664,158.33333333333331,-29.583333333333332,200,-30C241.66666666666669,-30.416666666666668,258.3333333333333,33.041666666666664,300,37C341.6666666666667,40.958333333333336,358.3333333333333,-7.666666666666667,400,-11C441.6666666666667,-14.333333333333332,458.3333333333333,24.75,500,21C541.6666666666666,17.25,558.3333333333334,-31.708333333333332,600,-29C641.6666666666666,-26.291666666666668,658.3333333333334,28.791666666666664,700,34C741.6666666666666,39.208333333333336,779.1666666666666,3.916666666666666,800,-4" transform="matrix(1,0,0,1,0,672)"></path><path d="M10,10C28.75,16.041666666666664,60.416666666666664,47.333333333333336,100,39C139.58333333333334,30.666666666666664,158.33333333333331,-29.583333333333332,200,-30C241.66666666666669,-30.416666666666668,258.3333333333333,33.041666666666664,300,37C341.6666666666667,40.958333333333336,358.3333333333333,-7.666666666666667,400,-11C441.6666666666667,-14.333333333333332,458.3333333333333,24.75,500,21C541.6666666666666,17.25,558.3333333333334,-31.708333333333332,600,-29C641.6666666666666,-26.291666666666668,658.3333333333334,28.791666666666664,700,34C741.6666666666666,39.208333333333336,779.1666666666666,3.916666666666666,800,-4" transform="matrix(1,0,0,1,0,640)"></path><path d="M10,10C28.75,16.041666666666664,60.416666666666664,47.333333333333336,100,39C139.58333333333334,30.666666666666664,158.33333333333331,-29.583333333333332,200,-30C241.66666666666669,-30.416666666666668,258.3333333333333,33.041666666666664,300,37C341.6666666666667,40.958333333333336,358.3333333333333,-7.666666666666667,400,-11C441.6666666666667,-14.333333333333332,458.3333333333333,24.75,500,21C541.6666666666666,17.25,558.3333333333334,-31.708333333333332,600,-29C641.6666666666666,-26.291666666666668,658.3333333333334,28.791666666666664,700,34C741.6666666666666,39.208333333333336,779.1666666666666,3.916666666666666,800,-4" transform="matrix(1,0,0,1,0,608)"></path><path d="M10,10C28.75,16.041666666666664,60.416666666666664,47.333333333333336,100,39C139.58333333333334,30.666666666666664,158.33333333333331,-29.583333333333332,200,-30C241.66666666666669,-30.416666666666668,258.3333333333333,33.041666666666664,300,37C341.6666666666667,40.958333333333336,358.3333333333333,-7.666666666666667,400,-11C441.6666666666667,-14.333333333333332,458.3333333333333,24.75,500,21C541.6666666666666,17.25,558.3333333333334,-31.708333333333332,600,-29C641.6666666666666,-26.291666666666668,658.3333333333334,28.791666666666664,700,34C741.6666666666666,39.208333333333336,779.1666666666666,3.916666666666666,800,-4" transform="matrix(1,0,0,1,0,576)"></path><path d="M10,10C28.75,16.041666666666664,60.416666666666664,47.333333333333336,100,39C139.58333333333334,30.666666666666664,158.33333333333331,-29.583333333333332,200,-30C241.66666666666669,-30.416666666666668,258.3333333333333,33.041666666666664,300,37C341.6666666666667,40.958333333333336,358.3333333333333,-7.666666666666667,400,-11C441.6666666666667,-14.333333333333332,458.3333333333333,24.75,500,21C541.6666666666666,17.25,558.3333333333334,-31.708333333333332,600,-29C641.6666666666666,-26.291666666666668,658.3333333333334,28.791666666666664,700,34C741.6666666666666,39.208333333333336,779.1666666666666,3.916666666666666,800,-4" transform="matrix(1,0,0,1,0,544)"></path><path d="M10,10C28.75,16.041666666666664,60.416666666666664,47.333333333333336,100,39C139.58333333333334,30.666666666666664,158.33333333333331,-29.583333333333332,200,-30C241.66666666666669,-30.416666666666668,258.3333333333333,33.041666666666664,300,37C341.6666666666667,40.958333333333336,358.3333333333333,-7.666666666666667,400,-11C441.6666666666667,-14.333333333333332,458.3333333333333,24.75,500,21C541.6666666666666,17.25,558.3333333333334,-31.708333333333332,600,-29C641.6666666666666,-26.291666666666668,658.3333333333334,28.791666666666664,700,34C741.6666666666666,39.208333333333336,779.1666666666666,3.916666666666666,800,-4" transform="matrix(1,0,0,1,0,512)"></path><path d="M10,10C28.75,16.041666666666664,60.416666666666664,47.333333333333336,100,39C139.58333333333334,30.666666666666664,158.33333333333331,-29.583333333333332,200,-30C241.66666666666669,-30.416666666666668,258.3333333333333,33.041666666666664,300,37C341.6666666666667,40.958333333333336,358.3333333333333,-7.666666666666667,400,-11C441.6666666666667,-14.333333333333332,458.3333333333333,24.75,500,21C541.6666666666666,17.25,558.3333333333334,-31.708333333333332,600,-29C641.6666666666666,-26.291666666666668,658.3333333333334,28.791666666666664,700,34C741.6666666666666,39.208333333333336,779.1666666666666,3.916666666666666,800,-4" transform="matrix(1,0,0,1,0,480)"></path><path d="M10,10C28.75,16.041666666666664,60.416666666666664,47.333333333333336,100,39C139.58333333333334,30.666666666666664,158.33333333333331,-29.583333333333332,200,-30C241.66666666666669,-30.416666666666668,258.3333333333333,33.041666666666664,300,37C341.6666666666667,40.958333333333336,358.3333333333333,-7.666666666666667,400,-11C441.6666666666667,-14.333333333333332,458.3333333333333,24.75,500,21C541.6666666666666,17.25,558.3333333333334,-31.708333333333332,600,-29C641.6666666666666,-26.291666666666668,658.3333333333334,28.791666666666664,700,34C741.6666666666666,39.208333333333336,779.1666666666666,3.916666666666666,800,-4" transform="matrix(1,0,0,1,0,448)"></path><path d="M10,10C28.75,16.041666666666664,60.416666666666664,47.333333333333336,100,39C139.58333333333334,30.666666666666664,158.33333333333331,-29.583333333333332,200,-30C241.66666666666669,-30.416666666666668,258.3333333333333,33.041666666666664,300,37C341.6666666666667,40.958333333333336,358.3333333333333,-7.666666666666667,400,-11C441.6666666666667,-14.333333333333332,458.3333333333333,24.75,500,21C541.6666666666666,17.25,558.3333333333334,-31.708333333333332,600,-29C641.6666666666666,-26.291666666666668,658.3333333333334,28.791666666666664,700,34C741.6666666666666,39.208333333333336,779.1666666666666,3.916666666666666,800,-4" transform="matrix(1,0,0,1,0,416)"></path><path d="M10,10C28.75,16.041666666666664,60.416666666666664,47.333333333333336,100,39C139.58333333333334,30.666666666666664,158.33333333333331,-29.583333333333332,200,-30C241.66666666666669,-30.416666666666668,258.3333333333333,33.041666666666664,300,37C341.6666666666667,40.958333333333336,358.3333333333333,-7.666666666666667,400,-11C441.6666666666667,-14.333333333333332,458.3333333333333,24.75,500,21C541.6666666666666,17.25,558.3333333333334,-31.708333333333332,600,-29C641.6666666666666,-26.291666666666668,658.3333333333334,28.791666666666664,700,34C741.6666666666666,39.208333333333336,779.1666666666666,3.916666666666666,800,-4" transform="matrix(1,0,0,1,0,384)"></path><path d="M10,10C28.75,16.041666666666664,60.416666666666664,47.333333333333336,100,39C139.58333333333334,30.666666666666664,158.33333333333331,-29.583333333333332,200,-30C241.66666666666669,-30.416666666666668,258.3333333333333,33.041666666666664,300,37C341.6666666666667,40.958333333333336,358.3333333333333,-7.666666666666667,400,-11C441.6666666666667,-14.333333333333332,458.3333333333333,24.75,500,21C541.6666666666666,17.25,558.3333333333334,-31.708333333333332,600,-29C641.6666666666666,-26.291666666666668,658.3333333333334,28.791666666666664,700,34C741.6666666666666,39.208333333333336,779.1666666666666,3.916666666666666,800,-4" transform="matrix(1,0,0,1,0,352)"></path><path d="M10,10C28.75,16.041666666666664,60.416666666666664,47.333333333333336,100,39C139.58333333333334,30.666666666666664,158.33333333333331,-29.583333333333332,200,-30C241.66666666666669,-30.416666666666668,258.3333333333333,33.041666666666664,300,37C341.6666666666667,40.958333333333336,358.3333333333333,-7.666666666666667,400,-11C441.6666666666667,-14.333333333333332,458.3333333333333,24.75,500,21C541.6666666666666,17.25,558.3333333333334,-31.708333333333332,600,-29C641.6666666666666,-26.291666666666668,658.3333333333334,28.791666666666664,700,34C741.6666666666666,39.208333333333336,779.1666666666666,3.916666666666666,800,-4" transform="matrix(1,0,0,1,0,320)"></path><path d="M10,10C28.75,16.041666666666664,60.416666666666664,47.333333333333336,100,39C139.58333333333334,30.666666666666664,158.33333333333331,-29.583333333333332,200,-30C241.66666666666669,-30.416666666666668,258.3333333333333,33.041666666666664,300,37C341.6666666666667,40.958333333333336,358.3333333333333,-7.666666666666667,400,-11C441.6666666666667,-14.333333333333332,458.3333333333333,24.75,500,21C541.6666666666666,17.25,558.3333333333334,-31.708333333333332,600,-29C641.6666666666666,-26.291666666666668,658.3333333333334,28.791666666666664,700,34C741.6666666666666,39.208333333333336,779.1666666666666,3.916666666666666,800,-4" transform="matrix(1,0,0,1,0,288)"></path><path d="M10,10C28.75,16.041666666666664,60.416666666666664,47.333333333333336,100,39C139.58333333333334,30.666666666666664,158.33333333333331,-29.583333333333332,200,-30C241.66666666666669,-30.416666666666668,258.3333333333333,33.041666666666664,300,37C341.6666666666667,40.958333333333336,358.3333333333333,-7.666666666666667,400,-11C441.6666666666667,-14.333333333333332,458.3333333333333,24.75,500,21C541.6666666666666,17.25,558.3333333333334,-31.708333333333332,600,-29C641.6666666666666,-26.291666666666668,658.3333333333334,28.791666666666664,700,34C741.6666666666666,39.208333333333336,779.1666666666666,3.916666666666666,800,-4" transform="matrix(1,0,0,1,0,256)"></path><path d="M10,10C28.75,16.041666666666664,60.416666666666664,47.333333333333336,100,39C139.58333333333334,30.666666666666664,158.33333333333331,-29.583333333333332,200,-30C241.66666666666669,-30.416666666666668,258.3333333333333,33.041666666666664,300,37C341.6666666666667,40.958333333333336,358.3333333333333,-7.666666666666667,400,-11C441.6666666666667,-14.333333333333332,458.3333333333333,24.75,500,21C541.6666666666666,17.25,558.3333333333334,-31.708333333333332,600,-29C641.6666666666666,-26.291666666666668,658.3333333333334,28.791666666666664,700,34C741.6666666666666,39.208333333333336,779.1666666666666,3.916666666666666,800,-4" transform="matrix(1,0,0,1,0,224)"></path><path d="M10,10C28.75,16.041666666666664,60.416666666666664,47.333333333333336,100,39C139.58333333333334,30.666666666666664,158.33333333333331,-29.583333333333332,200,-30C241.66666666666669,-30.416666666666668,258.3333333333333,33.041666666666664,300,37C341.6666666666667,40.958333333333336,358.3333333333333,-7.666666666666667,400,-11C441.6666666666667,-14.333333333333332,458.3333333333333,24.75,500,21C541.6666666666666,17.25,558.3333333333334,-31.708333333333332,600,-29C641.6666666666666,-26.291666666666668,658.3333333333334,28.791666666666664,700,34C741.6666666666666,39.208333333333336,779.1666666666666,3.916666666666666,800,-4" transform="matrix(1,0,0,1,0,192)"></path><path d="M10,10C28.75,16.041666666666664,60.416666666666664,47.333333333333336,100,39C139.58333333333334,30.666666666666664,158.33333333333331,-29.583333333333332,200,-30C241.66666666666669,-30.416666666666668,258.3333333333333,33.041666666666664,300,37C341.6666666666667,40.958333333333336,358.3333333333333,-7.666666666666667,400,-11C441.6666666666667,-14.333333333333332,458.3333333333333,24.75,500,21C541.6666666666666,17.25,558.3333333333334,-31.708333333333332,600,-29C641.6666666666666,-26.291666666666668,658.3333333333334,28.791666666666664,700,34C741.6666666666666,39.208333333333336,779.1666666666666,3.916666666666666,800,-4" transform="matrix(1,0,0,1,0,160)"></path><path d="M10,10C28.75,16.041666666666664,60.416666666666664,47.333333333333336,100,39C139.58333333333334,30.666666666666664,158.33333333333331,-29.583333333333332,200,-30C241.66666666666669,-30.416666666666668,258.3333333333333,33.041666666666664,300,37C341.6666666666667,40.958333333333336,358.3333333333333,-7.666666666666667,400,-11C441.6666666666667,-14.333333333333332,458.3333333333333,24.75,500,21C541.6666666666666,17.25,558.3333333333334,-31.708333333333332,600,-29C641.6666666666666,-26.291666666666668,658.3333333333334,28.791666666666664,700,34C741.6666666666666,39.208333333333336,779.1666666666666,3.916666666666666,800,-4" transform="matrix(1,0,0,1,0,128)"></path><path d="M10,10C28.75,16.041666666666664,60.416666666666664,47.333333333333336,100,39C139.58333333333334,30.666666666666664,158.33333333333331,-29.583333333333332,200,-30C241.66666666666669,-30.416666666666668,258.3333333333333,33.041666666666664,300,37C341.6666666666667,40.958333333333336,358.3333333333333,-7.666666666666667,400,-11C441.6666666666667,-14.333333333333332,458.3333333333333,24.75,500,21C541.6666666666666,17.25,558.3333333333334,-31.708333333333332,600,-29C641.6666666666666,-26.291666666666668,658.3333333333334,28.791666666666664,700,34C741.6666666666666,39.208333333333336,779.1666666666666,3.916666666666666,800,-4" transform="matrix(1,0,0,1,0,96)"></path><path d="M10,10C28.75,16.041666666666664,60.416666666666664,47.333333333333336,100,39C139.58333333333334,30.666666666666664,158.33333333333331,-29.583333333333332,200,-30C241.66666666666669,-30.416666666666668,258.3333333333333,33.041666666666664,300,37C341.6666666666667,40.958333333333336,358.3333333333333,-7.666666666666667,400,-11C441.6666666666667,-14.333333333333332,458.3333333333333,24.75,500,21C541.6666666666666,17.25,558.3333333333334,-31.708333333333332,600,-29C641.6666666666666,-26.291666666666668,658.3333333333334,28.791666666666664,700,34C741.6666666666666,39.208333333333336,779.1666666666666,3.916666666666666,800,-4" transform="matrix(1,0,0,1,0,64)"></path><path d="M10,10C28.75,16.041666666666664,60.416666666666664,47.333333333333336,100,39C139.58333333333334,30.666666666666664,158.33333333333331,-29.583333333333332,200,-30C241.66666666666669,-30.416666666666668,258.3333333333333,33.041666666666664,300,37C341.6666666666667,40.958333333333336,358.3333333333333,-7.666666666666667,400,-11C441.6666666666667,-14.333333333333332,458.3333333333333,24.75,500,21C541.6666666666666,17.25,558.3333333333334,-31.708333333333332,600,-29C641.6666666666666,-26.291666666666668,658.3333333333334,28.791666666666664,700,34C741.6666666666666,39.208333333333336,779.1666666666666,3.916666666666666,800,-4" transform="matrix(1,0,0,1,0,32)"></path></g></svg>